<?xml version="1.0" standalone="no"?>
<!DOCTYPE svg PUBLIC "-//W3C//DTD SVG 20010904//EN"
 "http://www.w3.org/TR/2001/REC-SVG-20010904/DTD/svg10.dtd">
<svg version="1.0" xmlns="http://www.w3.org/2000/svg"
 width="600.000000pt" height="600.000000pt" viewBox="0 0 600.000000 600.000000"
 preserveAspectRatio="xMidYMid meet">
<metadata>
Created by potrace 1.14, written by Peter Selinger 2001-2017
</metadata>
<g transform="translate(0.000000,600.000000) scale(0.100000,-0.100000)"
fill="#000000" stroke="none">
<path d="M3044 5926 c-101 -47 -161 -160 -229 -436 -61 -243 -93 -305 -261
-500 -220 -255 -294 -362 -335 -485 -15 -43 -33 -81 -40 -83 -39 -12 -131 -60
-184 -96 -125 -84 -220 -211 -260 -350 -22 -75 -15 -158 19 -232 l25 -53 -28
-23 c-95 -81 -170 -215 -178 -320 -7 -88 9 -145 62 -217 59 -80 113 -105 230
-108 50 -1 93 -2 96 -2 7 -1 71 -176 160 -436 75 -222 183 -534 302 -875 53
-151 140 -401 193 -555 53 -154 141 -408 196 -565 54 -157 117 -341 139 -410
34 -105 59 -163 59 -138 0 3 36 111 81 239 45 129 103 297 129 374 26 77 143
415 260 750 117 336 236 680 265 765 102 297 284 821 289 829 3 4 31 13 63 20
80 18 192 71 240 114 21 20 52 62 68 94 26 52 29 68 30 153 0 82 -4 103 -27
155 -18 41 -28 83 -31 133 -6 98 -48 181 -137 270 -44 44 -71 81 -80 107 -38
121 -128 205 -219 205 -25 0 -34 7 -50 38 -43 84 -165 192 -216 192 -18 0 -27
15 -55 88 -18 48 -85 188 -148 312 -320 621 -340 669 -329 776 15 149 83 151
203 5 32 -39 66 -71 75 -71 23 0 49 27 49 49 0 35 -63 143 -119 203 -97 106
-200 134 -307 84z m-64 -146 c-6 -11 -13 -20 -16 -20 -2 0 0 9 6 20 6 11 13
20 16 20 2 0 0 -9 -6 -20z m-35 -73 c-17 -41 -30 -155 -45 -388 -15 -241 -27
-281 -167 -551 -46 -87 -71 -165 -88 -271 -5 -34 -8 -37 -33 -31 -15 4 -28 8
-30 9 -6 5 28 155 46 202 11 29 49 101 85 160 35 60 74 128 87 152 37 74 68
219 85 402 17 179 35 286 56 333 18 39 22 25 4 -17z m142 -39 c-3 -7 -5 -2 -5
12 0 14 2 19 5 13 2 -7 2 -19 0 -25z m-10 -65 c-3 -10 -5 -4 -5 12 0 17 2 24
5 18 2 -7 2 -21 0 -30z m101 -305 c99 -250 96 -235 97 -543 1 -247 3 -276 23
-341 22 -75 87 -230 105 -252 16 -20 5 -20 -41 0 -49 22 -68 56 -116 205 -35
113 -41 212 -22 358 31 228 22 297 -78 602 -36 111 -66 215 -65 230 0 18 6 5
18 -37 9 -36 45 -135 79 -222z m-664 -887 c3 -5 -17 -11 -44 -15 -75 -10 -214
-52 -297 -91 -136 -63 -245 -156 -311 -266 -22 -36 -68 -149 -83 -204 -6 -21
-8 -5 -5 51 3 98 37 178 114 271 91 109 271 212 435 247 71 16 183 20 191 7z
m1276 -206 c0 -72 -15 -116 -57 -165 -68 -79 -214 -151 -335 -165 l-53 -6 85
38 c116 53 164 86 236 157 60 61 104 143 104 199 0 18 2 19 10 7 5 -8 10 -37
10 -65z m-654 -27 l59 -12 -146 -12 c-265 -22 -410 -75 -534 -196 -60 -59 -95
-82 -95 -63 0 12 50 82 81 114 135 137 421 213 635 169z m-678 -353 c-2 -3
-56 -14 -119 -24 -262 -45 -457 -138 -574 -273 -38 -45 -125 -212 -125 -240 0
-9 -5 -20 -11 -24 -9 -5 -11 11 -7 60 18 220 252 422 569 491 59 12 278 21
267 10z m1707 -184 c-57 -105 -195 -173 -380 -187 -82 -7 -194 7 -248 29 -24
10 -10 12 95 13 143 2 264 27 358 74 97 49 140 95 182 195 13 30 13 30 16 -23
2 -42 -2 -62 -23 -101z m-1025 -72 c55 -14 55 -14 -110 -20 -356 -15 -543 -90
-677 -274 -37 -50 -43 -55 -37 -30 22 99 116 201 237 259 68 32 198 70 277 80
64 8 254 -1 310 -15z m525 -250 c28 -6 64 -17 80 -24 28 -14 27 -14 -30 -7
-112 13 -313 5 -423 -17 -130 -27 -201 -54 -258 -98 -25 -19 -48 -32 -51 -30
-11 12 73 88 122 111 147 70 392 98 560 65z m-1315 -299 c26 0 52 -12 51 -24
-2 -16 2 -23 32 -57 17 -21 41 -50 52 -65 25 -34 67 -87 76 -94 3 -3 9 -36 13
-75 4 -38 9 -79 12 -90 l5 -20 -16 20 c-16 20 -17 19 -51 -19 -18 -21 -34 -41
-34 -45 0 -3 -10 -17 -23 -31 -39 -42 -69 -90 -65 -103 5 -18 142 -196 152
-196 5 -1 23 16 41 36 l32 38 8 -61 c5 -43 3 -68 -6 -81 -10 -17 -9 -25 8 -49
14 -20 23 -54 28 -109 l7 -80 -51 67 c-28 37 -55 69 -60 72 -5 4 -19 -7 -31
-24 -12 -16 -25 -30 -29 -30 -4 0 -12 21 -18 47 -9 38 -8 51 4 70 14 21 13 25
-21 66 -29 35 -44 72 -76 181 -22 75 -40 140 -40 145 0 5 34 51 75 102 41 52
74 97 72 101 -1 4 -38 53 -82 108 l-79 101 -33 -38 c-18 -21 -32 -41 -33 -45
0 -5 -4 -8 -9 -8 -5 0 -14 22 -21 49 -11 46 -10 52 11 80 19 26 21 34 11 55
-9 21 -8 25 6 28 9 3 26 -2 37 -9 11 -7 31 -13 45 -13z m349 -1304 c1 -29 -7
-50 -35 -88 -20 -27 -38 -47 -41 -44 -2 2 -10 24 -18 49 l-13 45 46 61 c43 56
48 59 54 39 3 -13 6 -40 7 -62z m-1 -259 c38 -48 41 -60 56 -162 12 -90 12
-112 2 -123 -11 -11 -15 -8 -24 15 -7 15 -14 44 -16 63 -3 19 -11 53 -19 75
-8 22 -26 77 -40 123 -28 92 -23 93 41 9z"/>
</g>
</svg>
